<svg width="137" height="56" viewBox="0 0 137 56" fill="none" xmlns="http://www.w3.org/2000/svg">
<path d="M5.773 33.971C5.773 35.099 6.07067 36.0547 6.666 36.838C7.26133 37.6213 8.04467 38.013 9.016 38.013C10.0187 38.013 10.8333 37.872 11.46 37.59C12.118 37.2767 12.6663 36.8067 13.105 36.18C13.5437 35.522 13.9197 34.8013 14.233 34.018C14.5463 33.2347 14.797 32.2477 14.985 31.057C15.173 29.835 15.314 28.6287 15.408 27.438C15.5333 26.2473 15.6273 24.8217 15.69 23.161C15.784 21.469 15.8467 19.8867 15.878 18.414C16.0347 14.2153 16.2227 10.5493 16.442 7.416C15.0633 7.47867 14.186 7.51 13.81 7.51C12.024 7.51 11.131 6.60133 11.131 4.784C11.131 4.032 11.225 3.28 11.413 2.528C13.575 3.02933 16.066 3.28 18.886 3.28C21.7373 3.28 24.808 2.77866 28.098 1.776C27.9413 3.28 27.346 4.455 26.312 5.301C25.3093 6.11567 24.291 6.60133 23.257 6.758C22.6617 6.88333 22.1133 6.96166 21.612 6.993C20.954 13.5417 20.484 18.8213 20.202 22.832C19.9513 26.8427 19.497 30.0073 18.839 32.326C18.181 34.6133 17.335 36.3523 16.301 37.543C15.267 38.7023 14.186 39.517 13.058 39.987C11.9613 40.457 10.7237 40.692 9.345 40.692C6.58767 40.692 4.504 39.9243 3.094 38.389C1.684 36.8223 0.979 34.958 0.979 32.796C0.979 31.292 1.43333 29.9917 2.342 28.895C3.21933 27.767 4.457 27.203 6.055 27.203C6.86967 27.203 7.63733 27.4537 8.358 27.955C7.54333 28.6443 6.901 29.5373 6.431 30.634C5.99233 31.7307 5.773 32.843 5.773 33.971ZM37.7132 20.623C36.8045 22.1897 36.0995 23.8033 35.5982 25.464C35.1282 27.0933 34.8932 28.66 34.8932 30.164C34.8932 31.668 35.2222 32.9527 35.8802 34.018C36.5695 35.052 37.5408 35.569 38.7942 35.569C40.5488 35.569 42.1938 34.6133 43.7292 32.702C45.2645 30.7593 46.4395 28.425 47.2542 25.699C48.1002 22.9417 48.5232 20.4037 48.5232 18.085C48.5232 15.735 48.4292 13.808 48.2412 12.304C48.9932 12.2413 49.4632 12.21 49.6512 12.21C52.3145 12.21 53.6462 13.573 53.6462 16.299C53.6462 16.8943 53.2702 19.3227 52.5182 23.584C51.7662 27.814 51.3902 31.2137 51.3902 33.783C51.3902 36.321 51.8758 38.577 52.8472 40.551C50.8732 40.1437 49.4318 39.282 48.5232 37.966C47.6458 36.6187 47.2072 34.6917 47.2072 32.185C47.2072 31.7463 47.2698 30.9003 47.3952 29.647C46.5492 32.6237 45.0608 35.0207 42.9302 36.838C40.7995 38.6553 38.7002 39.564 36.6322 39.564C34.5955 39.564 32.9505 38.7963 31.6972 37.261C30.4438 35.6943 29.8172 33.548 29.8172 30.822C29.8172 28.0647 30.3185 25.3857 31.3212 22.785C32.3552 20.153 33.8905 17.8813 35.9272 15.97C37.9952 14.0587 40.2982 13.103 42.8362 13.103C43.9328 13.103 45.1392 13.3223 46.4552 13.761C44.6065 14.231 42.9145 15.0927 41.3792 16.346C39.8438 17.5993 38.6218 19.025 37.7132 20.623ZM80.4722 15.124C80.4722 16.2207 80.0022 17.7403 79.0622 19.683C78.1222 21.6257 76.9785 23.7563 75.6312 26.075C74.2838 28.3937 72.9365 30.869 71.5892 33.501C70.2418 36.1017 69.0982 38.953 68.1582 42.055C67.2182 45.1883 66.7482 48.1807 66.7482 51.032C66.7482 52.442 66.8578 53.7893 67.0772 55.074C65.0718 54.604 63.7088 53.899 62.9882 52.959C62.2988 52.0503 61.9542 50.9693 61.9542 49.716C61.9542 47.93 63.0508 44.5303 65.2442 39.517C64.7742 37.5743 64.1945 34.535 63.5052 30.399C62.8158 26.2317 62.1108 22.6127 61.3902 19.542C60.7008 16.4713 59.9018 14.184 58.9932 12.68C60.1838 11.8653 61.2022 11.458 62.0482 11.458C63.6775 11.458 64.7898 12.304 65.3852 13.996C65.9805 15.6567 66.4975 18.8527 66.9362 23.584C67.4062 28.3153 67.8762 31.7933 68.3462 34.018C74.4875 22.456 77.5582 14.7323 77.5582 10.847C79.5008 12.163 80.4722 13.5887 80.4722 15.124ZM94.1785 15.688C95.1185 16.534 96.1525 17.38 97.2805 18.226C98.4399 19.0407 99.5835 19.871 100.712 20.717C101.871 21.563 102.921 22.4247 103.861 23.302C105.991 25.276 107.057 27.4537 107.057 29.835C107.057 32.7803 105.929 35.24 103.673 37.214C101.448 39.188 98.5025 40.175 94.8365 40.175C91.1705 40.175 88.3505 39.3447 86.3765 37.684C84.4025 36.0233 83.4155 34.0493 83.4155 31.762C83.4155 30.07 83.9169 28.707 84.9195 27.673C85.9222 26.6077 87.2225 26.075 88.8205 26.075C89.2592 26.075 89.6822 26.1377 90.0895 26.263C89.1182 27.7357 88.6325 29.318 88.6325 31.01C88.6325 32.6707 89.2122 34.0963 90.3715 35.287C91.5309 36.4777 93.2699 37.073 95.5885 37.073C97.2492 37.073 98.7219 36.5717 100.007 35.569C101.323 34.535 101.981 33.1093 101.981 31.292C101.981 30.1013 101.589 28.942 100.806 27.814C100.022 26.6547 99.0509 25.6363 97.8915 24.759C96.7322 23.8817 95.4632 22.9103 94.0845 21.845C92.7059 20.7483 91.4369 19.6987 90.2775 18.696C89.1182 17.6933 88.1469 16.4713 87.3635 15.03C86.5802 13.5887 86.1885 12.0847 86.1885 10.518C86.1885 7.54133 87.1912 5.19133 89.1965 3.468C91.2332 1.71333 94.1629 0.835998 97.9855 0.835998C101.088 0.835998 103.516 1.66633 105.271 3.327C107.057 4.95633 107.95 6.664 107.95 8.45C107.95 10.2047 107.464 11.646 106.493 12.774C105.553 13.902 104.252 14.466 102.592 14.466C102.028 14.466 101.479 14.4033 100.947 14.278C102.482 12.6487 103.25 10.9253 103.25 9.108C103.25 7.29067 102.686 5.92767 101.558 5.019C100.43 4.079 98.9882 3.609 97.2335 3.609C95.5102 3.609 94.0375 4.11033 92.8155 5.113C91.5935 6.11567 90.9825 7.63533 90.9825 9.672C90.9825 11.7087 92.0479 13.714 94.1785 15.688ZM113.726 33.971C113.726 35.099 114.024 36.0547 114.619 36.838C115.214 37.6213 115.998 38.013 116.969 38.013C117.972 38.013 118.786 37.872 119.413 37.59C120.071 37.2767 120.619 36.8067 121.058 36.18C121.497 35.522 121.873 34.8013 122.186 34.018C122.499 33.2347 122.75 32.2477 122.938 31.057C123.126 29.835 123.267 28.6287 123.361 27.438C123.486 26.2473 123.58 24.8217 123.643 23.161C123.737 21.469 123.8 19.8867 123.831 18.414C123.988 14.2153 124.176 10.5493 124.395 7.416C123.016 7.47867 122.139 7.51 121.763 7.51C119.977 7.51 119.084 6.60133 119.084 4.784C119.084 4.032 119.178 3.28 119.366 2.528C121.528 3.02933 124.019 3.28 126.839 3.28C129.69 3.28 132.761 2.77866 136.051 1.776C135.894 3.28 135.299 4.455 134.265 5.301C133.262 6.11567 132.244 6.60133 131.21 6.758C130.615 6.88333 130.066 6.96166 129.565 6.993C128.907 13.5417 128.437 18.8213 128.155 22.832C127.904 26.8427 127.45 30.0073 126.792 32.326C126.134 34.6133 125.288 36.3523 124.254 37.543C123.22 38.7023 122.139 39.517 121.011 39.987C119.914 40.457 118.677 40.692 117.298 40.692C114.541 40.692 112.457 39.9243 111.047 38.389C109.637 36.8223 108.932 34.958 108.932 32.796C108.932 31.292 109.386 29.9917 110.295 28.895C111.172 27.767 112.41 27.203 114.008 27.203C114.823 27.203 115.59 27.4537 116.311 27.955C115.496 28.6443 114.854 29.5373 114.384 30.634C113.945 31.7307 113.726 32.843 113.726 33.971Z" fill="white"/>
</svg>
